<?xml version="1.0"?>
<svg xmlns="http://www.w3.org/2000/svg" version="1.2" baseProfile="tiny" width="800" height="1075" viewBox="0 0 800 1075" stroke-linecap="round" stroke-linejoin="round">
<g id="export1">
<path d="M 408.23 277.18 386.65 256.66 353 290.85 331.95 270.83 377.96 224.05 392.48 237.87 402.23 227.96 442.77 266.52 435.02 274.41 451.06 289.66 402.99 338.48 392.38 328.39 384.35 336.55 374.04 326.74 415.77 284.35 408.23 277.18 Z" id="Facultad de Ingeniería y Arquitectura"/>
<path d="M 718.74 343.92 762.76 389.21 719.81 429.59 707.17 416.56 721.78 402.83 702.69 383.19 716.76 369.98 704.46 357.34 718.74 343.92 Z" id="Edificio Administrativo"/>
<path d="M 668.97 429.74 630.75 464.76 657.89 493.4 696.42 458.09 715.98 478.73 672.24 518.81 649.94 495.28 637.43 506.73 655.13 525.43 647.26 532.65 596.41 478.98 605.6 470.55 588.56 452.55 643.17 402.51 668.97 429.74 Z" id="Facultad de Derecho"/>
<path d="M 555.31 552.55 363.18 550.49 363.38 531.73 363.76 497.44 366.94 497.47 423.45 498.09 423.58 486.35 502.76 487.19 502.61 499.62 559.32 500.22 558.74 552.59 555.31 552.55 Z" id="Feria de comidas"/>
<path d="M 419.11 551.8 506.49 553.22 505.82 592.33 418.46 590.92 418.76 572.54 419.11 551.8 Z" id="Gran Salón de la USM"/>
<path d="M 617.86 319.04 656.21 357.54 663.46 364.81 656.38 371.61 647.93 363.13 633.89 376.65 581.06 323.6 593.85 311.28 585.1 302.5 644.52 245.29 660.13 260.95 668.65 252.75 723.3 307.62 693.6 336.24 647.78 290.24 617.86 319.04 Z" id="Facultad de FACES"/>
<path d="M 559.1 377.78 671.51 378.73 671.33 395.39 559.27 394.23 544.82 394.13 544.57 419.31 484.35 418.71 484.98 357.54 468.43 358.24 371.1 356.41 371.26 340.51 468.22 342.24 488.27 341.68 488.41 327.84 514.3 328.11 530.15 328.26 529.92 351.02 548.83 351.21 548.54 377.52 559.1 377.78 Z" id="Plaza Central de la USM"/>
<path d="M 401.05 358.84 445.07 401.5 419.52 426.99 376.14 384.95 384.58 376.52 376.83 369.02 385.81 360.04 392.93 366.94 401.05 358.84 Z" id="Facultad de Odontología"/>
<path d="M 309.1 424.3 278.45 448.51 276.09 430.43 294.81 414.65 309.1 424.3 Z" id="Cafetín"/>
<path d="M 366.01 432.98 311.77 487.41 308.78 550.27 285.9 554.96 290.35 468.12 351.92 415.53 366.01 432.98 Z" id="Facultad de Farmacia"/>
<path d="M 287.58 296.19 297.97 307.12 282.62 321.25 268.7 306.64 273.52 302.2 277.03 305.89 287.58 296.19 Z" id="undefined"/>
<path d="M 258.21 260.04 283.14 283.75 256.83 310.49 231.9 286.78 258.21 260.04 Z" id="undefined"/>
<path d="M 237.35 224.7 243.52 228.14 246.1 223.67 260.92 231.93 265.01 224.83 277.4 231.73 263.41 256 230.04 237.4 237.35 224.7 Z" id="undefined"/>
<path d="M 112.37 460.14 120.02 460.22 119.34 525.69 111.68 525.61 112.37 460.14 Z" id="undefined"/>
<path d="M 90.51 552.07 114.14 552.27 113.97 571.84 90.34 571.66 90.51 552.07 Z" id="undefined"/>
<path d="M 123 344.42 123 374.54 120.34 376.63 120.87 455.13 102.11 455.48 102.81 382.55 111.14 363.4 110.43 344.07 123 344.42 Z" id="undefined"/>
<path d="M 227.04 300.15 226.38 306.5 229.94 306.72 229.5 312.86 208.75 312.86 208.75 309.58 173.29 308.91 169.73 305.62 169.28 294.88 173.74 288.74 213.65 288.08 227.04 300.15 Z" id="undefined"/>
<path d="M 280.96 417.61 277.52 414.63 277.52 374.3 280.55 372.12 311.26 404.69 302.17 414.03 293.48 405.49 280.96 417.61 Z" id="null"/>
</g>
<g id="export2" fill="none" stroke="black" stroke-width="1">
<path d="M 493.9 236.54 498.37 252.34 494.99 267.12 489.44 280.06" id="Avenida Santa María"/>
<path d="M 525.99 255.01 504.04 219.76 498.92 211.54 457.21 136.54 445.42 111.28 438.03 95.43 435.24 80.18 437.14 72.51 439.81 64.61 449.54 50.24" id="Avenida Santa María"/>
<path d="M 652.6 65.56 661.65 64.33 698.48 57.88 714.77 60.09 735.75 65.66 759.2 87.06 770.58 105.77 776.75 141.13 766.9 157.79 755.08 168.17 602.86 207.17" id="undefined"/>
<path d="M 565.22 718.59 564.11 646.25" id="undefined"/>
<path d="M 314.2 595.82 347.26 592.55 441.83 599.05 536.02 596.12 563.84 629" id="undefined"/>
<path d="M 536.02 596.12 557.61 591.53 561.43 587.26 569.08 579.31 578.55 564.84 582.55 557.16 584.57 542.91 583.67 484.13 576.03 455.51" id="undefined"/>
<path d="M 799 523.9 793.99 542.47 789.04 555.28 773.36 580.21 747.99 612.89 708.75 653.25 664.13 705.89 642.72 749.74 637.37 1014.66 637.37 1042.74 632.2 1065.08" id="undefined"/>
<path d="M 551.47 320.36 552.54 296.54 555.03 278.56 556.46 264.46 561.42 247.38 574.82 232.2 602.86 207.17" id="undefined"/>
<path d="M 602.86 207.17 547.11 223.07 534.84 224 520.42 222.62 504.04 219.76" id="undefined"/>
<path d="M 602.86 207.17 561.78 230.42 525.99 255.01" id="undefined"/>
<path d="M 314.2 595.82 282.31 647.94 246.62 695.31 235.91 721.63 228.77 769 221.64 809.36 210.93 833.91 185.95 849.71 176.73 850.16 159.76 850.97 105.69 840.93 69.68 828.35 43.24 807.66 21.99 775.02 2.76 727.99 1 700.26 2.78 681.85 4.11 670.01 11.16 656.69 17.1 644.02 35.21 624.2 53.52 610.68 69.37 601.03 101.93 590.72 132.03 587.21 202.26 587.63 211.76 587.43 236.87 578.46 269.2 546.96 274.89 537.98 278.26 528.06 283.69 459.54 283.5 448.89" id="undefined"/>
<path d="M 540.68 284.95 525.99 255.01" id="undefined"/>
<path d="M 437.7 42.24 423.77 67.9 422.09 81.82 423.08 94.33 424.65 106.27 429.97 117.56 441.61 142.24 493.9 236.54" id="Avenida Santa María"/>
<path d="M 53.52 610.68 56.1 588.31 54.63 577.35 73.16 553.88 78.85 536.12 78.61 505.19 76.39 454.96 73.33 450.59 66.29 446.96 50.06 444.12 37.64 446.25 27.92 452.94 20.41 461.88 18.51 480.31 18.06 501.46 19.29 518.79 19.63 543.46 16.83 578.66 17.28 594.66 21.74 608.26 35.21 624.2" id="undefined"/>
<path d="M 11.16 656.69 40.68 655.3 51.12 656.69 58.74 657.91 67.06 664.87 76.8 674.97 82.99 678.45 88.29 679.68 101.93 679.18 125.35 679.14 150.64 679.09 175.45 678.74" id="undefined"/>
<path d="M 559.1 377.78 557.08 354.17 551.47 320.36 540.68 284.95 531.45 278.55 522.55 274.31 512.61 272.28 500.71 272.29 489.44 280.06 478.73 296.23 470.81 310.44 467.95 322.75 468.22 342.24" id="undefined"/>
<path d="M 176.73 850.16 184.1 923.86" id="undefined"/>
<path d="M 150.64 679.09 148.65 793.26 174.74 792.6 175.45 678.74" id="undefined"/>
<path d="M 175.45 678.74 192.7 679.33 200.95 677.35 210.99 670.98 225.71 632.83 228.37 621.85 227.92 613.52 226.18 605.17 211.76 587.43" id="undefined"/>
<path d="M 76.8 674.97 75.94 787.23" id="undefined"/>
<path d="M 101.93 679.18 99.92 793.15" id="undefined"/>
<path d="M 125.35 679.14 123.12 798.19" id="undefined"/>
<path d="M 468.07 454.43 452.75 473.57 436.87 477.8 406.95 478.36 367.54 479.13 349.61 486.83 344.62 495.84 336.16 527.14 326.06 572.46 314.2 595.82" id="undefined"/>
<path d="M 563.84 629 568.38 621.54 576.53 609.35 583.25 596.29 585.03 585.15 582.55 557.16" id="undefined"/>
<path d="M 355.8 375.75 312.52 429.09 283.69 459.54" id="undefined"/>
<path d="M 355.8 375.75 371.1 356.41" id="undefined"/>
<path d="M 406.95 478.36 393.16 459.75 390.09 453.95 387.54 443.17 388.52 429.89 389.52 419.42 387.54 407.82 383.9 402.01 355.8 375.75" id="undefined"/>
<path d="M 543.95 453.82 543.74 438.62 544.4 425.38 544.57 419.31" id="undefined"/>
<path d="M 466.99 438.75 543.74 438.62 572.26 438.57" id="undefined"/>
<path d="M 559.27 394.23 559.1 377.78" id="undefined"/>
<path d="M 468.43 358.24 469.13 409.28 468.38 424.08 466.99 438.75 468.07 454.43 543.95 453.82 576.03 455.51 572.26 438.57 565.97 425.74 559.27 394.23" id="undefined"/>
<path d="M 468.22 342.24 468.43 358.24" id="undefined"/>
<path d="M 525.99 255.01 500.71 272.29" id="undefined"/>
<path d="M 347.26 592.55 356.41 545.1 357.08 540.71 359.07 535.02 363.38 531.73" id="undefined"/>
<path d="M 536.02 596.12 547.9 584.33 550.92 578.45 555.58 558.49 555.31 552.55" id="undefined"/>
<path d="M 468.38 424.08 544.4 425.38 565.97 425.74" id="undefined"/>
<path d="M 366.76 457.23 371.36 448.51 388.52 429.89" id="undefined"/>
<path d="M 366.94 497.47 366.76 457.23" id="undefined"/>
<path d="M 564.11 646.25 563.84 629" id="undefined"/>
<path d="M 565.59 742.61 565.22 718.59" id="undefined"/>
<path d="M 437.7 42.24 449.54 50.24" id="undefined"/>
<path d="M 565.59 742.61 571.99 986.29" id="undefined"/>
<path d="M 50.06 444.12 54.63 577.35 16.83 578.66" id="undefined"/>
<path d="M 429.97 117.56 445.42 111.28" id="undefined"/>
<path d="M 136.34 632.49 207.42 632.71" id="undefined"/>
<path d="M 226.18 605.17 219.21 608.46 147.81 607.33 140.95 609.63 138.38 612.75 136.77 617.36 136.34 632.49 135.82 650.92 137.55 655.36 140.78 656.84 146.37 657.11 202.3 655.63" id="undefined"/>
<path d="M 735.75 65.66 742.79 52.97" id="undefined"/>
<path d="M 742.79 52.97 754.66 18.99 756.23 8.68 755.39 5.56 753.33 3.2 742.62 1 739.11 2.16 736.27 4.84 721.44 34.01 720.65 39.27 723.66 43.22 742.79 52.97" id="undefined"/>
<path d="M 734.67 87.41 641.58 104.18" id="undefined"/>
<path d="M 750.39 109.78 617.74 137.34" id="undefined"/>
<path d="M 603.97 50.41 559.45 103.79" id="undefined"/>
<path d="M 535.77 88.58 559.45 103.79 582.12 118.35" id="undefined"/>
<path d="M 522.62 110.55 551.22 131.93 560.25 131.62 581.67 121.95" id="undefined"/>
<path d="M 629.17 162.42 670.88 150.58 743.37 134.34 751.17 123.72 750.39 109.78 734.67 87.41 723.06 79.3 708.58 75.14 667.09 82.81 641.58 104.18 622.03 120.54 616.23 133.91 617.74 137.34 621.14 145.09 629.17 162.42" id="undefined"/>
<path d="M 624.93 61.82 603.97 50.41 584.12 39.62 576.08 40.81 569.85 45.54 535.77 88.58 522.78 104.96 522.62 110.55 522.33 118.99 525.24 133.25 532.6 145.09 539.51 153.87 551.79 161.32 559.84 162.52 585.91 166.37 598.17 167.46 610.44 168.55 629.17 162.42" id="undefined"/>
<path d="M 652.6 65.56 642.22 61.65 630.28 59.57 624.93 61.82 621.59 66.14 582.12 118.35 581.67 121.95 582.45 123.17 583.83 123.65 587.34 123.43 652.6 65.56" id="undefined"/>
<path d="M 559.84 162.52 565.39 154.3 572.53 151.24 581.44 151.46 591.04 158.91 598.17 167.46" id="undefined"/>
<path d="M 770.58 105.77 750.39 109.78" id="undefined"/>
<path d="M 632.2 1065.08 614.27 1074.45 583.91 1071.12 573.25 1054.76 572.44 1017.76 571.99 986.29 389.25 989.26 390.02 1024.46 572.51 1017.7" id="null"/>
</g>
</svg>